<?xml version="1.0" encoding="UTF-8" standalone="no"?>
<svg
   xmlns:dc="http://purl.org/dc/elements/1.1/"
   xmlns:cc="http://creativecommons.org/ns#"
   xmlns:rdf="http://www.w3.org/1999/02/22-rdf-syntax-ns#"
   xmlns:svg="http://www.w3.org/2000/svg"
   xmlns="http://www.w3.org/2000/svg"
   xmlns:sodipodi="http://sodipodi.sourceforge.net/DTD/sodipodi-0.dtd"
   xmlns:inkscape="http://www.inkscape.org/namespaces/inkscape"
   id="Capa_1"
   enable-background="new 0 0 415.963 415.963"
   viewBox="0 0 415.963 415.963"
   version="1.1"
   sodipodi:docname="musical-note.svg"
   inkscape:version="1.0.2 (e86c870879, 2021-01-15)">
  <metadata
     id="metadata39">
    <rdf:RDF>
      <cc:Work
         rdf:about="">
        <dc:format>image/svg+xml</dc:format>
        <dc:type
           rdf:resource="http://purl.org/dc/dcmitype/StillImage" />
      </cc:Work>
    </rdf:RDF>
  </metadata>
  <defs
     id="defs37" />
  <sodipodi:namedview
     pagecolor="#ffffff"
     bordercolor="#666666"
     borderopacity="1"
     objecttolerance="10"
     gridtolerance="10"
     guidetolerance="10"
     inkscape:pageopacity="0"
     inkscape:pageshadow="2"
     inkscape:window-width="2560"
     inkscape:window-height="1361"
     id="namedview35"
     showgrid="false"
     inkscape:zoom="2.4232924"
     inkscape:cx="207.98151"
     inkscape:cy="207.15618"
     inkscape:window-x="-9"
     inkscape:window-y="-9"
     inkscape:window-maximized="1"
     inkscape:current-layer="Capa_1" />
  <path
     d="m328.712 264.539c12.928-21.632 21.504-48.992 23.168-76.064 1.056-17.376-2.816-35.616-11.2-52.768-13.152-26.944-35.744-42.08-57.568-56.704-16.288-10.912-31.68-21.216-42.56-35.936l-1.952-2.624c-6.432-8.64-13.696-18.432-14.848-26.656-1.152-8.32-8.704-14.24-16.96-13.76-8.384.576-14.88 7.52-14.88 15.936v285.12c-13.408-8.128-29.92-13.12-48-13.12-44.096 0-80 28.704-80 64s35.904 64 80 64 80-28.704 80-64v-186.496c24.032 9.184 63.36 32.576 74.176 87.2-2.016 2.976-3.936 6.176-6.176 8.736-5.856 6.624-5.216 16.736 1.44 22.56 6.592 5.888 16.704 5.184 22.56-1.44 4.288-4.864 8.096-10.56 11.744-16.512.384-.448.737-.928 1.056-1.472z"
     id="path2" />
  <g
     id="g4" />
  <g
     id="g6" />
  <g
     id="g8" />
  <g
     id="g10" />
  <g
     id="g12" />
  <g
     id="g14" />
  <g
     id="g16" />
  <g
     id="g18" />
  <g
     id="g20" />
  <g
     id="g22" />
  <g
     id="g24" />
  <g
     id="g26" />
  <g
     id="g28" />
  <g
     id="g30" />
  <g
     id="g32" />
  <path
     style="fill:#ffffff;stroke-width:0.412662"
     d="m 138.24168,415.50937 c -12.51898,-0.66331 -23.79611,-3.51824 -34.99067,-8.85829 -22.615906,-10.78827 -36.893969,-29.24151 -38.853118,-50.21452 -2.526061,-27.0419 17.53166,-52.92663 49.111178,-63.37855 24.57624,-8.13403 51.64641,-5.96702 74.17166,5.93755 2.33892,1.23612 4.33414,2.24749 4.4338,2.24749 0.0997,0 0.22867,-65.13349 0.28669,-144.74109 L 192.50669,11.760859 193.616,9.393918 c 4.53987,-9.68679888 17.14085,-12.0482863 25.01054,-4.6871054 2.67832,2.505247 3.99302,5.0572188 5.01304,9.7308034 1.48682,6.812344 5.32296,13.54797 15.16215,26.622225 10.80705,14.360335 17.76872,20.29904 46.95498,40.055282 23.00427,15.571642 33.59637,24.533357 43.06214,36.433847 15.85728,19.93597 24.48457,47.09445 22.75718,71.63899 -1.52552,21.67611 -7.13528,43.12919 -16.34199,62.49574 -3.25744,6.85211 -5.36647,10.55329 -10.36917,18.19706 -9.55966,14.60649 -13.83694,18.06967 -21.8095,17.65846 -5.94813,-0.30679 -10.52305,-3.36831 -13.23593,-8.85747 -1.4121,-2.85717 -1.53911,-3.40464 -1.54952,-6.67879 -0.0135,-4.23551 0.98551,-6.80945 4.2416,-10.92885 1.10491,-1.39785 2.87898,-3.85802 3.94238,-5.46705 l 1.93345,-2.92551 -1.06305,-4.5024 c -8.0652,-34.15879 -28.98626,-61.00585 -59.83748,-76.78674 -5.59196,-2.86038 -12.50243,-5.91506 -13.38139,-5.91506 -0.29568,0 -0.46755,30.14665 -0.55227,96.87234 -0.1164,91.66058 -0.16302,97.03885 -0.86663,99.9673 -3.78714,15.7622 -13.21523,28.82054 -27.9102,38.65693 -12.22372,8.1822 -29.20848,13.75103 -43.91067,14.39701 -2.74436,0.12058 -5.45399,0.26748 -6.0214,0.32641 -0.56741,0.059 -3.53857,-0.0256 -6.60258,-0.18797 z"
     id="path41" />
</svg>
